<?xml version="1.0" encoding="UTF-8" standalone="no"?>
<!DOCTYPE svg PUBLIC "-//W3C//DTD SVG 1.1//EN"
 "http://www.w3.org/Graphics/SVG/1.1/DTD/svg11.dtd">
<!-- Generated by graphviz version 2.49.0 (20210828.1703)
 -->
<!-- Title: main Pages: 1 -->
<svg width="444pt" height="203pt"
 viewBox="0.00 0.00 444.00 202.91" xmlns="http://www.w3.org/2000/svg" xmlns:xlink="http://www.w3.org/1999/xlink">
<g id="graph0" class="graph" transform="scale(1 1) rotate(0) translate(4 198.91)">
<title>main</title>
<polygon fill="white" stroke="transparent" points="-4,4 -4,-198.91 440,-198.91 440,4 -4,4"/>
<!-- Node1 -->
<g id="node1" class="node">
<title>Node1</title>
<g id="a_node1"><a xlink:title="Main function.">
<polygon fill="#bfbfbf" stroke="black" points="0,-139.5 0,-158.5 38,-158.5 38,-139.5 0,-139.5"/>
<text text-anchor="middle" x="19" y="-146.5" font-family="Helvetica,sans-Serif" font-size="10.00">main</text>
</a>
</g>
</g>
<!-- Node2 -->
<g id="node2" class="node">
<title>Node2</title>
<g id="a_node2"><a target="_blank" xlink:href="http://en.cppreference.com/w/cpp/io/manip/endl.html#" xlink:title=" ">
<polygon fill="white" stroke="black" points="188.5,-158.5 188.5,-177.5 242.5,-177.5 242.5,-158.5 188.5,-158.5"/>
<text text-anchor="middle" x="215.5" y="-165.5" font-family="Helvetica,sans-Serif" font-size="10.00">std::endl</text>
</a>
</g>
</g>
<!-- Node1&#45;&gt;Node2 -->
<g id="edge1" class="edge">
<title>Node1&#45;&gt;Node2</title>
<path fill="none" stroke="midnightblue" d="M38.3,-150.79C70.29,-153.91 136.94,-160.42 178.48,-164.48"/>
<polygon fill="midnightblue" stroke="midnightblue" points="178.17,-167.97 188.46,-165.46 178.85,-161 178.17,-167.97"/>
</g>
<!-- Node3 -->
<g id="node3" class="node">
<title>Node3</title>
<g id="a_node3"><a target="_blank" xlink:href="http://en.cppreference.com/w/cpp/container/vector/size.html#" xlink:title=" ">
<polygon fill="white" stroke="black" points="334.5,-152.5 334.5,-171.5 420.5,-171.5 420.5,-152.5 334.5,-152.5"/>
<text text-anchor="middle" x="377.5" y="-159.5" font-family="Helvetica,sans-Serif" font-size="10.00">std::vector::size</text>
</a>
</g>
</g>
<!-- Node1&#45;&gt;Node3 -->
<g id="edge2" class="edge">
<title>Node1&#45;&gt;Node3</title>
<path fill="none" stroke="midnightblue" d="M38.21,-157.34C48.54,-161.84 61.81,-167.23 74,-171 163,-198.52 190.63,-199.14 283,-187 301.49,-184.57 321.52,-179.55 338.27,-174.64"/>
<polygon fill="midnightblue" stroke="midnightblue" points="339.69,-177.87 348.24,-171.62 337.66,-171.17 339.69,-177.87"/>
</g>
<!-- Node4 -->
<g id="node4" class="node">
<title>Node4</title>
<g id="a_node4"><a xlink:href="../../de/d88/travelling__salesman__problem_8cpp.html#a483bb8ccf42aaf7375a83e91490eda1e" target="_top" xlink:title="Self&#45;test implementations.">
<polygon fill="white" stroke="black" points="74,-120.5 74,-139.5 112,-139.5 112,-120.5 74,-120.5"/>
<text text-anchor="middle" x="93" y="-127.5" font-family="Helvetica,sans-Serif" font-size="10.00">tests</text>
</a>
</g>
</g>
<!-- Node1&#45;&gt;Node4 -->
<g id="edge3" class="edge">
<title>Node1&#45;&gt;Node4</title>
<path fill="none" stroke="midnightblue" d="M38.17,-144.21C45.95,-142.15 55.23,-139.7 63.87,-137.42"/>
<polygon fill="midnightblue" stroke="midnightblue" points="64.81,-140.79 73.59,-134.86 63.02,-134.03 64.81,-140.79"/>
</g>
<!-- Node5 -->
<g id="node5" class="node">
<title>Node5</title>
<g id="a_node5"><a xlink:href="../../df/dce/namespacegraph.html#ad75915bca32549e464167418b8249304" target="_top" xlink:title="Function calculates the minimum path distance that will cover all the cities starting from the source...">
<polygon fill="white" stroke="black" points="148,-71 148,-101 283,-101 283,-71 148,-71"/>
<text text-anchor="start" x="156" y="-89" font-family="Helvetica,sans-Serif" font-size="10.00">graph::TravellingSalesman</text>
<text text-anchor="middle" x="215.5" y="-78" font-family="Helvetica,sans-Serif" font-size="10.00">Problem</text>
</a>
</g>
</g>
<!-- Node1&#45;&gt;Node5 -->
<g id="edge12" class="edge">
<title>Node1&#45;&gt;Node5</title>
<path fill="none" stroke="midnightblue" d="M30.72,-139.28C41.05,-130.48 57.49,-117.88 74,-111 93.94,-102.69 116.6,-97.15 137.81,-93.44"/>
<polygon fill="midnightblue" stroke="midnightblue" points="138.45,-96.88 147.76,-91.82 137.32,-89.97 138.45,-96.88"/>
</g>
<!-- Node4&#45;&gt;Node2 -->
<g id="edge4" class="edge">
<title>Node4&#45;&gt;Node2</title>
<path fill="none" stroke="midnightblue" d="M112.04,-135.69C129.58,-141.22 156.7,-149.77 178.63,-156.69"/>
<polygon fill="midnightblue" stroke="midnightblue" points="177.71,-160.07 188.3,-159.74 179.81,-153.39 177.71,-160.07"/>
</g>
<!-- Node4&#45;&gt;Node3 -->
<g id="edge5" class="edge">
<title>Node4&#45;&gt;Node3</title>
<path fill="none" stroke="midnightblue" d="M112.01,-131.58C145.64,-134.58 220.3,-141.49 283,-149 296.36,-150.6 310.76,-152.51 324.17,-154.37"/>
<polygon fill="midnightblue" stroke="midnightblue" points="323.8,-157.85 334.19,-155.77 324.77,-150.92 323.8,-157.85"/>
</g>
<!-- Node4&#45;&gt;Node5 -->
<g id="edge6" class="edge">
<title>Node4&#45;&gt;Node5</title>
<path fill="none" stroke="midnightblue" d="M112.04,-123.41C125.79,-118.39 145.44,-111.22 163.87,-104.49"/>
<polygon fill="midnightblue" stroke="midnightblue" points="165.16,-107.74 173.35,-101.03 162.75,-101.17 165.16,-107.74"/>
</g>
<!-- Node5&#45;&gt;Node3 -->
<g id="edge11" class="edge">
<title>Node5&#45;&gt;Node3</title>
<path fill="none" stroke="midnightblue" d="M253.81,-101.1C263.53,-105.5 273.84,-110.59 283,-116 300.22,-126.17 301.27,-133.74 319,-143 323.04,-145.11 327.36,-147.05 331.75,-148.82"/>
<polygon fill="midnightblue" stroke="midnightblue" points="330.8,-152.2 341.4,-152.41 333.25,-145.64 330.8,-152.2"/>
</g>
<!-- Node6 -->
<g id="node6" class="node">
<title>Node6</title>
<g id="a_node6"><a target="_blank" xlink:href="http://en.cppreference.com/w/cpp/container/vector/begin.html#" xlink:title=" ">
<polygon fill="white" stroke="black" points="331,-76.5 331,-95.5 424,-95.5 424,-76.5 331,-76.5"/>
<text text-anchor="middle" x="377.5" y="-83.5" font-family="Helvetica,sans-Serif" font-size="10.00">std::vector::begin</text>
</a>
</g>
</g>
<!-- Node5&#45;&gt;Node6 -->
<g id="edge7" class="edge">
<title>Node5&#45;&gt;Node6</title>
<path fill="none" stroke="midnightblue" d="M283.43,-86C295.75,-86 308.49,-86 320.45,-86"/>
<polygon fill="midnightblue" stroke="midnightblue" points="320.72,-89.5 330.72,-86 320.72,-82.5 320.72,-89.5"/>
</g>
<!-- Node7 -->
<g id="node7" class="node">
<title>Node7</title>
<g id="a_node7"><a target="_blank" xlink:href="http://en.cppreference.com/w/cpp/container/vector/end.html#" xlink:title=" ">
<polygon fill="white" stroke="black" points="335,-38.5 335,-57.5 420,-57.5 420,-38.5 335,-38.5"/>
<text text-anchor="middle" x="377.5" y="-45.5" font-family="Helvetica,sans-Serif" font-size="10.00">std::vector::end</text>
</a>
</g>
</g>
<!-- Node5&#45;&gt;Node7 -->
<g id="edge8" class="edge">
<title>Node5&#45;&gt;Node7</title>
<path fill="none" stroke="midnightblue" d="M279.74,-70.98C295.21,-67.31 311.56,-63.42 326.32,-59.92"/>
<polygon fill="midnightblue" stroke="midnightblue" points="327.34,-63.27 336.26,-57.56 325.72,-56.46 327.34,-63.27"/>
</g>
<!-- Node8 -->
<g id="node8" class="node">
<title>Node8</title>
<g id="a_node8"><a target="_blank" xlink:href="http://en.cppreference.com/w/cpp/algorithm/min.html#" xlink:title=" ">
<polygon fill="white" stroke="black" points="351.5,-0.5 351.5,-19.5 403.5,-19.5 403.5,-0.5 351.5,-0.5"/>
<text text-anchor="middle" x="377.5" y="-7.5" font-family="Helvetica,sans-Serif" font-size="10.00">std::min</text>
</a>
</g>
</g>
<!-- Node5&#45;&gt;Node8 -->
<g id="edge9" class="edge">
<title>Node5&#45;&gt;Node8</title>
<path fill="none" stroke="midnightblue" d="M240.69,-70.84C261.05,-58.5 291.22,-41.19 319,-29 326.23,-25.83 334.17,-22.88 341.77,-20.3"/>
<polygon fill="midnightblue" stroke="midnightblue" points="343.07,-23.56 351.49,-17.14 340.9,-16.91 343.07,-23.56"/>
</g>
<!-- Node9 -->
<g id="node9" class="node">
<title>Node9</title>
<g id="a_node9"><a target="_blank" xlink:href="http://en.cppreference.com/w/cpp/container/vector/push_back.html#" xlink:title=" ">
<polygon fill="white" stroke="black" points="319,-114.5 319,-133.5 436,-133.5 436,-114.5 319,-114.5"/>
<text text-anchor="middle" x="377.5" y="-121.5" font-family="Helvetica,sans-Serif" font-size="10.00">std::vector::push_back</text>
</a>
</g>
</g>
<!-- Node5&#45;&gt;Node9 -->
<g id="edge10" class="edge">
<title>Node5&#45;&gt;Node9</title>
<path fill="none" stroke="midnightblue" d="M279.74,-101.02C295.21,-104.69 311.56,-108.58 326.32,-112.08"/>
<polygon fill="midnightblue" stroke="midnightblue" points="325.72,-115.54 336.26,-114.44 327.34,-108.73 325.72,-115.54"/>
</g>
</g>
</svg>
