<?xml version="1.0" encoding="UTF-8" standalone="no"?>
<!DOCTYPE svg PUBLIC "-//W3C//DTD SVG 1.1//EN"
 "http://www.w3.org/Graphics/SVG/1.1/DTD/svg11.dtd">
<!-- Generated by graphviz version 2.49.0 (20210828.1703)
 -->
<!-- Title: main Pages: 1 -->
<svg width="444pt" height="183pt"
 viewBox="0.00 0.00 444.00 183.00" xmlns="http://www.w3.org/2000/svg" xmlns:xlink="http://www.w3.org/1999/xlink">
<g id="graph0" class="graph" transform="scale(1 1) rotate(0) translate(4 179)">
<title>main</title>
<polygon fill="white" stroke="transparent" points="-4,4 -4,-179 440,-179 440,4 -4,4"/>
<!-- Node1 -->
<g id="node1" class="node">
<title>Node1</title>
<g id="a_node1"><a xlink:title="Main function.">
<polygon fill="#bfbfbf" stroke="black" points="0,-117.5 0,-136.5 38,-136.5 38,-117.5 0,-117.5"/>
<text text-anchor="middle" x="19" y="-124.5" font-family="Helvetica,sans-Serif" font-size="10.00">main</text>
</a>
</g>
</g>
<!-- Node2 -->
<g id="node2" class="node">
<title>Node2</title>
<g id="a_node2"><a target="_blank" xlink:href="http://en.cppreference.com/w/cpp/container/vector/size.html#" xlink:title=" ">
<polygon fill="white" stroke="black" points="334.5,-155.5 334.5,-174.5 420.5,-174.5 420.5,-155.5 334.5,-155.5"/>
<text text-anchor="middle" x="377.5" y="-162.5" font-family="Helvetica,sans-Serif" font-size="10.00">std::vector::size</text>
</a>
</g>
</g>
<!-- Node1&#45;&gt;Node2 -->
<g id="edge1" class="edge">
<title>Node1&#45;&gt;Node2</title>
<path fill="none" stroke="midnightblue" d="M38.42,-133.73C48.82,-137.47 62.09,-142.14 74,-146 106.64,-156.59 114.05,-163.06 148,-168 207.37,-176.64 223.01,-168.96 283,-168 296.33,-167.79 310.72,-167.4 324.13,-166.98"/>
<polygon fill="midnightblue" stroke="midnightblue" points="324.27,-170.47 334.15,-166.65 324.04,-163.48 324.27,-170.47"/>
</g>
<!-- Node3 -->
<g id="node3" class="node">
<title>Node3</title>
<g id="a_node3"><a xlink:href="../../de/d88/travelling__salesman__problem_8cpp.html#a483bb8ccf42aaf7375a83e91490eda1e" target="_top" xlink:title="Self&#45;test implementations.">
<polygon fill="white" stroke="black" points="74,-117.5 74,-136.5 112,-136.5 112,-117.5 74,-117.5"/>
<text text-anchor="middle" x="93" y="-124.5" font-family="Helvetica,sans-Serif" font-size="10.00">tests</text>
</a>
</g>
</g>
<!-- Node1&#45;&gt;Node3 -->
<g id="edge2" class="edge">
<title>Node1&#45;&gt;Node3</title>
<path fill="none" stroke="midnightblue" d="M38.17,-127C45.87,-127 55.03,-127 63.58,-127"/>
<polygon fill="midnightblue" stroke="midnightblue" points="63.59,-130.5 73.59,-127 63.59,-123.5 63.59,-130.5"/>
</g>
<!-- Node5 -->
<g id="node5" class="node">
<title>Node5</title>
<g id="a_node5"><a xlink:href="../../df/dce/namespacegraph.html#ad75915bca32549e464167418b8249304" target="_top" xlink:title="Function calculates the minimum path distance that will cover all the cities starting from the source...">
<polygon fill="white" stroke="black" points="148,-68 148,-98 283,-98 283,-68 148,-68"/>
<text text-anchor="start" x="156" y="-86" font-family="Helvetica,sans-Serif" font-size="10.00">graph::TravellingSalesman</text>
<text text-anchor="middle" x="215.5" y="-75" font-family="Helvetica,sans-Serif" font-size="10.00">Problem</text>
</a>
</g>
</g>
<!-- Node1&#45;&gt;Node5 -->
<g id="edge11" class="edge">
<title>Node1&#45;&gt;Node5</title>
<path fill="none" stroke="midnightblue" d="M38.26,-119.74C48.62,-115.84 61.89,-111.19 74,-108 94.49,-102.61 116.96,-98.03 137.82,-94.33"/>
<polygon fill="midnightblue" stroke="midnightblue" points="138.65,-97.73 147.9,-92.58 137.45,-90.84 138.65,-97.73"/>
</g>
<!-- Node3&#45;&gt;Node2 -->
<g id="edge4" class="edge">
<title>Node3&#45;&gt;Node2</title>
<path fill="none" stroke="midnightblue" d="M112.16,-134.7C122.48,-138.74 135.75,-143.38 148,-146 207.53,-158.73 277.48,-163.03 324.16,-164.43"/>
<polygon fill="midnightblue" stroke="midnightblue" points="324.25,-167.93 334.34,-164.7 324.43,-160.94 324.25,-167.93"/>
</g>
<!-- Node4 -->
<g id="node4" class="node">
<title>Node4</title>
<g id="a_node4"><a target="_blank" xlink:href="http://en.cppreference.com/w/cpp/io/manip/endl.html#" xlink:title=" ">
<polygon fill="white" stroke="black" points="188.5,-117.5 188.5,-136.5 242.5,-136.5 242.5,-117.5 188.5,-117.5"/>
<text text-anchor="middle" x="215.5" y="-124.5" font-family="Helvetica,sans-Serif" font-size="10.00">std::endl</text>
</a>
</g>
</g>
<!-- Node3&#45;&gt;Node4 -->
<g id="edge3" class="edge">
<title>Node3&#45;&gt;Node4</title>
<path fill="none" stroke="midnightblue" d="M112.04,-127C129.42,-127 156.21,-127 178.04,-127"/>
<polygon fill="midnightblue" stroke="midnightblue" points="178.3,-130.5 188.3,-127 178.3,-123.5 178.3,-130.5"/>
</g>
<!-- Node3&#45;&gt;Node5 -->
<g id="edge5" class="edge">
<title>Node3&#45;&gt;Node5</title>
<path fill="none" stroke="midnightblue" d="M112.04,-120.41C125.79,-115.39 145.44,-108.22 163.87,-101.49"/>
<polygon fill="midnightblue" stroke="midnightblue" points="165.16,-104.74 173.35,-98.03 162.75,-98.17 165.16,-104.74"/>
</g>
<!-- Node5&#45;&gt;Node2 -->
<g id="edge10" class="edge">
<title>Node5&#45;&gt;Node2</title>
<path fill="none" stroke="midnightblue" d="M263.82,-98.01C270.47,-100.9 277.06,-104.23 283,-108 301.84,-119.96 300.19,-130.99 319,-143 324.02,-146.21 329.58,-149.06 335.21,-151.56"/>
<polygon fill="midnightblue" stroke="midnightblue" points="334.08,-154.88 344.66,-155.44 336.73,-148.4 334.08,-154.88"/>
</g>
<!-- Node6 -->
<g id="node6" class="node">
<title>Node6</title>
<g id="a_node6"><a target="_blank" xlink:href="http://en.cppreference.com/w/cpp/container/vector/begin.html#" xlink:title=" ">
<polygon fill="white" stroke="black" points="331,-114.5 331,-133.5 424,-133.5 424,-114.5 331,-114.5"/>
<text text-anchor="middle" x="377.5" y="-121.5" font-family="Helvetica,sans-Serif" font-size="10.00">std::vector::begin</text>
</a>
</g>
</g>
<!-- Node5&#45;&gt;Node6 -->
<g id="edge6" class="edge">
<title>Node5&#45;&gt;Node6</title>
<path fill="none" stroke="midnightblue" d="M275.17,-98.03C293.06,-102.62 312.49,-107.6 329.51,-111.96"/>
<polygon fill="midnightblue" stroke="midnightblue" points="328.66,-115.35 339.21,-114.45 330.4,-108.57 328.66,-115.35"/>
</g>
<!-- Node7 -->
<g id="node7" class="node">
<title>Node7</title>
<g id="a_node7"><a target="_blank" xlink:href="http://en.cppreference.com/w/cpp/container/vector/end.html#" xlink:title=" ">
<polygon fill="white" stroke="black" points="335,-76.5 335,-95.5 420,-95.5 420,-76.5 335,-76.5"/>
<text text-anchor="middle" x="377.5" y="-83.5" font-family="Helvetica,sans-Serif" font-size="10.00">std::vector::end</text>
</a>
</g>
</g>
<!-- Node5&#45;&gt;Node7 -->
<g id="edge7" class="edge">
<title>Node5&#45;&gt;Node7</title>
<path fill="none" stroke="midnightblue" d="M283.43,-84.25C297.21,-84.51 311.53,-84.78 324.68,-85.03"/>
<polygon fill="midnightblue" stroke="midnightblue" points="324.88,-88.53 334.94,-85.22 325.01,-81.53 324.88,-88.53"/>
</g>
<!-- Node8 -->
<g id="node8" class="node">
<title>Node8</title>
<g id="a_node8"><a target="_blank" xlink:href="http://en.cppreference.com/w/cpp/algorithm/min.html#" xlink:title=" ">
<polygon fill="white" stroke="black" points="351.5,-38.5 351.5,-57.5 403.5,-57.5 403.5,-38.5 351.5,-38.5"/>
<text text-anchor="middle" x="377.5" y="-45.5" font-family="Helvetica,sans-Serif" font-size="10.00">std::min</text>
</a>
</g>
</g>
<!-- Node5&#45;&gt;Node8 -->
<g id="edge8" class="edge">
<title>Node5&#45;&gt;Node8</title>
<path fill="none" stroke="midnightblue" d="M283.43,-68.36C303.28,-64.02 324.24,-59.43 341.24,-55.71"/>
<polygon fill="midnightblue" stroke="midnightblue" points="342.24,-59.08 351.26,-53.52 340.74,-52.24 342.24,-59.08"/>
</g>
<!-- Node9 -->
<g id="node9" class="node">
<title>Node9</title>
<g id="a_node9"><a target="_blank" xlink:href="http://en.cppreference.com/w/cpp/container/vector/push_back.html#" xlink:title=" ">
<polygon fill="white" stroke="black" points="319,-0.5 319,-19.5 436,-19.5 436,-0.5 319,-0.5"/>
<text text-anchor="middle" x="377.5" y="-7.5" font-family="Helvetica,sans-Serif" font-size="10.00">std::vector::push_back</text>
</a>
</g>
</g>
<!-- Node5&#45;&gt;Node9 -->
<g id="edge9" class="edge">
<title>Node5&#45;&gt;Node9</title>
<path fill="none" stroke="midnightblue" d="M242.46,-67.78C262.84,-56.22 292.16,-40.41 319,-29 324.08,-26.84 329.49,-24.77 334.89,-22.84"/>
<polygon fill="midnightblue" stroke="midnightblue" points="336.2,-26.09 344.52,-19.53 333.92,-19.47 336.2,-26.09"/>
</g>
</g>
</svg>
