<?xml version="1.0" encoding="UTF-8" standalone="no"?>
<!DOCTYPE svg PUBLIC "-//W3C//DTD SVG 1.1//EN"
 "http://www.w3.org/Graphics/SVG/1.1/DTD/svg11.dtd">
<!-- Generated by graphviz version 2.49.0 (20210828.1703)
 -->
<!-- Title: tests Pages: 1 -->
<svg width="370pt" height="210pt"
 viewBox="0.00 0.00 370.00 210.00" xmlns="http://www.w3.org/2000/svg" xmlns:xlink="http://www.w3.org/1999/xlink">
<g id="graph0" class="graph" transform="scale(1 1) rotate(0) translate(4 206)">
<title>tests</title>
<polygon fill="white" stroke="transparent" points="-4,4 -4,-206 366,-206 366,4 -4,4"/>
<!-- Node1 -->
<g id="node1" class="node">
<title>Node1</title>
<g id="a_node1"><a xlink:title="Self&#45;test implementations.">
<polygon fill="#bfbfbf" stroke="black" points="0,-144.5 0,-163.5 38,-163.5 38,-144.5 0,-144.5"/>
<text text-anchor="middle" x="19" y="-151.5" font-family="Helvetica,sans-Serif" font-size="10.00">tests</text>
</a>
</g>
</g>
<!-- Node2 -->
<g id="node2" class="node">
<title>Node2</title>
<g id="a_node2"><a target="_blank" xlink:href="http://en.cppreference.com/w/cpp/io/manip/endl.html#" xlink:title=" ">
<polygon fill="white" stroke="black" points="114.5,-182.5 114.5,-201.5 168.5,-201.5 168.5,-182.5 114.5,-182.5"/>
<text text-anchor="middle" x="141.5" y="-189.5" font-family="Helvetica,sans-Serif" font-size="10.00">std::endl</text>
</a>
</g>
</g>
<!-- Node1&#45;&gt;Node2 -->
<g id="edge1" class="edge">
<title>Node1&#45;&gt;Node2</title>
<path fill="none" stroke="midnightblue" d="M38.04,-159.69C55.58,-165.22 82.7,-173.77 104.63,-180.69"/>
<polygon fill="midnightblue" stroke="midnightblue" points="103.71,-184.07 114.3,-183.74 105.81,-177.39 103.71,-184.07"/>
</g>
<!-- Node3 -->
<g id="node3" class="node">
<title>Node3</title>
<g id="a_node3"><a target="_blank" xlink:href="http://en.cppreference.com/w/cpp/container/vector/size.html#" xlink:title=" ">
<polygon fill="white" stroke="black" points="260.5,-152.5 260.5,-171.5 346.5,-171.5 346.5,-152.5 260.5,-152.5"/>
<text text-anchor="middle" x="303.5" y="-159.5" font-family="Helvetica,sans-Serif" font-size="10.00">std::vector::size</text>
</a>
</g>
</g>
<!-- Node1&#45;&gt;Node3 -->
<g id="edge2" class="edge">
<title>Node1&#45;&gt;Node3</title>
<path fill="none" stroke="midnightblue" d="M38.1,-154.51C80.15,-155.7 185.73,-158.69 250.03,-160.51"/>
<polygon fill="midnightblue" stroke="midnightblue" points="250.27,-164.02 260.36,-160.81 250.47,-157.03 250.27,-164.02"/>
</g>
<!-- Node4 -->
<g id="node4" class="node">
<title>Node4</title>
<g id="a_node4"><a xlink:href="../../df/dce/namespacegraph.html#ad75915bca32549e464167418b8249304" target="_top" xlink:title="Function calculates the minimum path distance that will cover all the cities starting from the source...">
<polygon fill="white" stroke="black" points="74,-87 74,-117 209,-117 209,-87 74,-87"/>
<text text-anchor="start" x="82" y="-105" font-family="Helvetica,sans-Serif" font-size="10.00">graph::TravellingSalesman</text>
<text text-anchor="middle" x="141.5" y="-94" font-family="Helvetica,sans-Serif" font-size="10.00">Problem</text>
</a>
</g>
</g>
<!-- Node1&#45;&gt;Node4 -->
<g id="edge3" class="edge">
<title>Node1&#45;&gt;Node4</title>
<path fill="none" stroke="midnightblue" d="M38.04,-146.22C53.34,-139.61 75.95,-129.86 96.03,-121.19"/>
<polygon fill="midnightblue" stroke="midnightblue" points="97.55,-124.34 105.35,-117.17 94.78,-117.92 97.55,-124.34"/>
</g>
<!-- Node4&#45;&gt;Node3 -->
<g id="edge8" class="edge">
<title>Node4&#45;&gt;Node3</title>
<path fill="none" stroke="midnightblue" d="M178.82,-117.16C198.33,-125.14 222.85,-134.92 245,-143 250.69,-145.08 256.74,-147.18 262.69,-149.2"/>
<polygon fill="midnightblue" stroke="midnightblue" points="261.94,-152.64 272.54,-152.48 264.16,-146 261.94,-152.64"/>
</g>
<!-- Node5 -->
<g id="node5" class="node">
<title>Node5</title>
<g id="a_node5"><a target="_blank" xlink:href="http://en.cppreference.com/w/cpp/container/vector/begin.html#" xlink:title=" ">
<polygon fill="white" stroke="black" points="257,-114.5 257,-133.5 350,-133.5 350,-114.5 257,-114.5"/>
<text text-anchor="middle" x="303.5" y="-121.5" font-family="Helvetica,sans-Serif" font-size="10.00">std::vector::begin</text>
</a>
</g>
</g>
<!-- Node4&#45;&gt;Node5 -->
<g id="edge4" class="edge">
<title>Node4&#45;&gt;Node5</title>
<path fill="none" stroke="midnightblue" d="M209.43,-111.2C221.87,-112.91 234.75,-114.68 246.81,-116.34"/>
<polygon fill="midnightblue" stroke="midnightblue" points="246.34,-119.81 256.72,-117.71 247.29,-112.88 246.34,-119.81"/>
</g>
<!-- Node6 -->
<g id="node6" class="node">
<title>Node6</title>
<g id="a_node6"><a target="_blank" xlink:href="http://en.cppreference.com/w/cpp/container/vector/end.html#" xlink:title=" ">
<polygon fill="white" stroke="black" points="261,-76.5 261,-95.5 346,-95.5 346,-76.5 261,-76.5"/>
<text text-anchor="middle" x="303.5" y="-83.5" font-family="Helvetica,sans-Serif" font-size="10.00">std::vector::end</text>
</a>
</g>
</g>
<!-- Node4&#45;&gt;Node6 -->
<g id="edge5" class="edge">
<title>Node4&#45;&gt;Node6</title>
<path fill="none" stroke="midnightblue" d="M209.43,-95.31C223.21,-93.93 237.53,-92.5 250.68,-91.18"/>
<polygon fill="midnightblue" stroke="midnightblue" points="251.34,-94.63 260.94,-90.16 250.65,-87.67 251.34,-94.63"/>
</g>
<!-- Node7 -->
<g id="node7" class="node">
<title>Node7</title>
<g id="a_node7"><a target="_blank" xlink:href="http://en.cppreference.com/w/cpp/algorithm/min.html#" xlink:title=" ">
<polygon fill="white" stroke="black" points="277.5,-38.5 277.5,-57.5 329.5,-57.5 329.5,-38.5 277.5,-38.5"/>
<text text-anchor="middle" x="303.5" y="-45.5" font-family="Helvetica,sans-Serif" font-size="10.00">std::min</text>
</a>
</g>
</g>
<!-- Node4&#45;&gt;Node7 -->
<g id="edge6" class="edge">
<title>Node4&#45;&gt;Node7</title>
<path fill="none" stroke="midnightblue" d="M186.36,-86.92C204.5,-80.71 225.75,-73.47 245,-67 252.35,-64.53 260.23,-61.91 267.73,-59.43"/>
<polygon fill="midnightblue" stroke="midnightblue" points="268.89,-62.73 277.29,-56.27 266.7,-56.08 268.89,-62.73"/>
</g>
<!-- Node8 -->
<g id="node8" class="node">
<title>Node8</title>
<g id="a_node8"><a target="_blank" xlink:href="http://en.cppreference.com/w/cpp/container/vector/push_back.html#" xlink:title=" ">
<polygon fill="white" stroke="black" points="245,-0.5 245,-19.5 362,-19.5 362,-0.5 245,-0.5"/>
<text text-anchor="middle" x="303.5" y="-7.5" font-family="Helvetica,sans-Serif" font-size="10.00">std::vector::push_back</text>
</a>
</g>
</g>
<!-- Node4&#45;&gt;Node8 -->
<g id="edge7" class="edge">
<title>Node4&#45;&gt;Node8</title>
<path fill="none" stroke="midnightblue" d="M160.32,-86.77C179.96,-70.6 213.04,-45.19 245,-29 249.29,-26.83 253.88,-24.82 258.53,-23"/>
<polygon fill="midnightblue" stroke="midnightblue" points="259.88,-26.23 268.07,-19.51 257.47,-19.66 259.88,-26.23"/>
</g>
</g>
</svg>
