<?xml version="1.0" encoding="UTF-8" standalone="no"?>
<!DOCTYPE svg PUBLIC "-//W3C//DTD SVG 1.1//EN"
 "http://www.w3.org/Graphics/SVG/1.1/DTD/svg11.dtd">
<!-- Generated by graphviz version 2.49.0 (20210828.1703)
 -->
<!-- Title: graph::TravellingSalesmanProblem Pages: 1 -->
<svg width="296pt" height="180pt"
 viewBox="0.00 0.00 296.00 180.00" xmlns="http://www.w3.org/2000/svg" xmlns:xlink="http://www.w3.org/1999/xlink">
<g id="graph0" class="graph" transform="scale(1 1) rotate(0) translate(4 176)">
<title>graph::TravellingSalesmanProblem</title>
<polygon fill="white" stroke="transparent" points="-4,4 -4,-176 292,-176 292,4 -4,4"/>
<!-- Node1 -->
<g id="node1" class="node">
<title>Node1</title>
<g id="a_node1"><a xlink:title="Function calculates the minimum path distance that will cover all the cities starting from the source...">
<polygon fill="#bfbfbf" stroke="black" points="0,-71 0,-101 135,-101 135,-71 0,-71"/>
<text text-anchor="start" x="8" y="-89" font-family="Helvetica,sans-Serif" font-size="10.00">graph::TravellingSalesman</text>
<text text-anchor="middle" x="67.5" y="-78" font-family="Helvetica,sans-Serif" font-size="10.00">Problem</text>
</a>
</g>
</g>
<!-- Node2 -->
<g id="node2" class="node">
<title>Node2</title>
<g id="a_node2"><a target="_blank" xlink:href="http://en.cppreference.com/w/cpp/container/vector/begin.html#" xlink:title=" ">
<polygon fill="white" stroke="black" points="183,-152.5 183,-171.5 276,-171.5 276,-152.5 183,-152.5"/>
<text text-anchor="middle" x="229.5" y="-159.5" font-family="Helvetica,sans-Serif" font-size="10.00">std::vector::begin</text>
</a>
</g>
</g>
<!-- Node1&#45;&gt;Node2 -->
<g id="edge1" class="edge">
<title>Node1&#45;&gt;Node2</title>
<path fill="none" stroke="midnightblue" d="M92.69,-101.16C113.05,-113.5 143.22,-130.81 171,-143 175.99,-145.19 181.33,-147.27 186.65,-149.2"/>
<polygon fill="midnightblue" stroke="midnightblue" points="185.57,-152.53 196.16,-152.5 187.86,-145.92 185.57,-152.53"/>
</g>
<!-- Node3 -->
<g id="node3" class="node">
<title>Node3</title>
<g id="a_node3"><a target="_blank" xlink:href="http://en.cppreference.com/w/cpp/container/vector/end.html#" xlink:title=" ">
<polygon fill="white" stroke="black" points="187,-114.5 187,-133.5 272,-133.5 272,-114.5 187,-114.5"/>
<text text-anchor="middle" x="229.5" y="-121.5" font-family="Helvetica,sans-Serif" font-size="10.00">std::vector::end</text>
</a>
</g>
</g>
<!-- Node1&#45;&gt;Node3 -->
<g id="edge2" class="edge">
<title>Node1&#45;&gt;Node3</title>
<path fill="none" stroke="midnightblue" d="M131.74,-101.02C147.21,-104.69 163.56,-108.58 178.32,-112.08"/>
<polygon fill="midnightblue" stroke="midnightblue" points="177.72,-115.54 188.26,-114.44 179.34,-108.73 177.72,-115.54"/>
</g>
<!-- Node4 -->
<g id="node4" class="node">
<title>Node4</title>
<g id="a_node4"><a target="_blank" xlink:href="http://en.cppreference.com/w/cpp/algorithm/min.html#" xlink:title=" ">
<polygon fill="white" stroke="black" points="203.5,-76.5 203.5,-95.5 255.5,-95.5 255.5,-76.5 203.5,-76.5"/>
<text text-anchor="middle" x="229.5" y="-83.5" font-family="Helvetica,sans-Serif" font-size="10.00">std::min</text>
</a>
</g>
</g>
<!-- Node1&#45;&gt;Node4 -->
<g id="edge3" class="edge">
<title>Node1&#45;&gt;Node4</title>
<path fill="none" stroke="midnightblue" d="M135.43,-86C155.28,-86 176.24,-86 193.24,-86"/>
<polygon fill="midnightblue" stroke="midnightblue" points="193.26,-89.5 203.26,-86 193.26,-82.5 193.26,-89.5"/>
</g>
<!-- Node5 -->
<g id="node5" class="node">
<title>Node5</title>
<g id="a_node5"><a target="_blank" xlink:href="http://en.cppreference.com/w/cpp/container/vector/push_back.html#" xlink:title=" ">
<polygon fill="white" stroke="black" points="171,-38.5 171,-57.5 288,-57.5 288,-38.5 171,-38.5"/>
<text text-anchor="middle" x="229.5" y="-45.5" font-family="Helvetica,sans-Serif" font-size="10.00">std::vector::push_back</text>
</a>
</g>
</g>
<!-- Node1&#45;&gt;Node5 -->
<g id="edge4" class="edge">
<title>Node1&#45;&gt;Node5</title>
<path fill="none" stroke="midnightblue" d="M131.74,-70.98C147.21,-67.31 163.56,-63.42 178.32,-59.92"/>
<polygon fill="midnightblue" stroke="midnightblue" points="179.34,-63.27 188.26,-57.56 177.72,-56.46 179.34,-63.27"/>
</g>
<!-- Node6 -->
<g id="node6" class="node">
<title>Node6</title>
<g id="a_node6"><a target="_blank" xlink:href="http://en.cppreference.com/w/cpp/container/vector/size.html#" xlink:title=" ">
<polygon fill="white" stroke="black" points="186.5,-0.5 186.5,-19.5 272.5,-19.5 272.5,-0.5 186.5,-0.5"/>
<text text-anchor="middle" x="229.5" y="-7.5" font-family="Helvetica,sans-Serif" font-size="10.00">std::vector::size</text>
</a>
</g>
</g>
<!-- Node1&#45;&gt;Node6 -->
<g id="edge5" class="edge">
<title>Node1&#45;&gt;Node6</title>
<path fill="none" stroke="midnightblue" d="M92.69,-70.84C113.05,-58.5 143.22,-41.19 171,-29 175.99,-26.81 181.33,-24.73 186.65,-22.8"/>
<polygon fill="midnightblue" stroke="midnightblue" points="187.86,-26.08 196.16,-19.5 185.57,-19.47 187.86,-26.08"/>
</g>
</g>
</svg>
